<svg id="visual" viewBox="0 0 1080 1920" width="1080" height="1920" xmlns="http://www.w3.org/2000/svg" xmlns:xlink="http://www.w3.org/1999/xlink" version="1.1"><rect x="0" y="0" width="1080" height="1920" fill="#000000"></rect><defs><linearGradient id="grad1_0" x1="0%" y1="100%" x2="100%" y2="0%"><stop offset="30%" stop-color="#ae98e1" stop-opacity="1"></stop><stop offset="70%" stop-color="#ae98e1" stop-opacity="1"></stop></linearGradient></defs><defs><linearGradient id="grad1_1" x1="0%" y1="100%" x2="100%" y2="0%"><stop offset="30%" stop-color="#ae98e1" stop-opacity="1"></stop><stop offset="70%" stop-color="#725fa3" stop-opacity="1"></stop></linearGradient></defs><defs><linearGradient id="grad1_2" x1="0%" y1="100%" x2="100%" y2="0%"><stop offset="30%" stop-color="#392b69" stop-opacity="1"></stop><stop offset="70%" stop-color="#725fa3" stop-opacity="1"></stop></linearGradient></defs><defs><linearGradient id="grad1_3" x1="0%" y1="100%" x2="100%" y2="0%"><stop offset="30%" stop-color="#392b69" stop-opacity="1"></stop><stop offset="70%" stop-color="#000000" stop-opacity="1"></stop></linearGradient></defs><defs><linearGradient id="grad2_0" x1="0%" y1="100%" x2="100%" y2="0%"><stop offset="30%" stop-color="#ae98e1" stop-opacity="1"></stop><stop offset="70%" stop-color="#ae98e1" stop-opacity="1"></stop></linearGradient></defs><defs><linearGradient id="grad2_1" x1="0%" y1="100%" x2="100%" y2="0%"><stop offset="30%" stop-color="#725fa3" stop-opacity="1"></stop><stop offset="70%" stop-color="#ae98e1" stop-opacity="1"></stop></linearGradient></defs><defs><linearGradient id="grad2_2" x1="0%" y1="100%" x2="100%" y2="0%"><stop offset="30%" stop-color="#725fa3" stop-opacity="1"></stop><stop offset="70%" stop-color="#392b69" stop-opacity="1"></stop></linearGradient></defs><defs><linearGradient id="grad2_3" x1="0%" y1="100%" x2="100%" y2="0%"><stop offset="30%" stop-color="#000000" stop-opacity="1"></stop><stop offset="70%" stop-color="#392b69" stop-opacity="1"></stop></linearGradient></defs><g transform="translate(1080, 1920)"><path d="M-486 0C-473.6 -85.6 -461.2 -171.1 -420.9 -243C-380.6 -314.9 -312.3 -373.1 -237.5 -411.4C-162.7 -449.6 -81.3 -467.8 0 -486L0 0Z" fill="#1d144d"></path><path d="M-364.5 0C-355.2 -64.2 -345.9 -128.3 -315.7 -182.3C-285.4 -236.2 -234.2 -279.9 -178.1 -308.5C-122 -337.2 -61 -350.8 0 -364.5L0 0Z" fill="#554485"></path><path d="M-243 0C-236.8 -42.8 -230.6 -85.6 -210.4 -121.5C-190.3 -157.4 -156.2 -186.6 -118.8 -205.7C-81.3 -224.8 -40.7 -233.9 0 -243L0 0Z" fill="#907bc2"></path><path d="M-121.5 0C-118.4 -21.4 -115.3 -42.8 -105.2 -60.8C-95.1 -78.7 -78.1 -93.3 -59.4 -102.8C-40.7 -112.4 -20.3 -116.9 0 -121.5L0 0Z" fill="#ae98e1"></path></g><g transform="translate(0, 0)"><path d="M486 0C472.9 84.4 459.9 168.8 420.9 243C381.9 317.2 317 381.2 242.5 420C168 458.8 84 472.4 0 486L0 0Z" fill="#1d144d"></path><path d="M364.5 0C354.7 63.3 344.9 126.6 315.7 182.2C286.4 237.9 237.7 285.9 181.9 315C126 344.1 63 354.3 0 364.5L0 0Z" fill="#554485"></path><path d="M243 0C236.5 42.2 229.9 84.4 210.4 121.5C190.9 158.6 158.5 190.6 121.3 210C84 229.4 42 236.2 0 243L0 0Z" fill="#907bc2"></path><path d="M121.5 0C118.2 21.1 115 42.2 105.2 60.7C95.5 79.3 79.2 95.3 60.6 105C42 114.7 21 118.1 0 121.5L0 0Z" fill="#ae98e1"></path></g></svg>