<svg xmlns="http://www.w3.org/2000/svg" viewBox="0 0 900 1200"><svg id="visual" viewBox="0 0 900 600" width="900" height="600" xmlns="http://www.w3.org/2000/svg" xmlns:xlink="http://www.w3.org/1999/xlink" version="1.1" y="0"><rect x="0" y="0" width="900" height="600" fill="#000000"></rect><defs><linearGradient id="grad1_0" x1="43.8%" y1="100%" x2="100%" y2="0%"><stop offset="14.444444444444446%" stop-color="#ae98e1" stop-opacity="1"></stop><stop offset="85.55555555555554%" stop-color="#ae98e1" stop-opacity="1"></stop></linearGradient></defs><defs><linearGradient id="grad1_1" x1="43.8%" y1="100%" x2="100%" y2="0%"><stop offset="14.444444444444446%" stop-color="#ae98e1" stop-opacity="1"></stop><stop offset="85.55555555555554%" stop-color="#725fa3" stop-opacity="1"></stop></linearGradient></defs><defs><linearGradient id="grad1_2" x1="43.8%" y1="100%" x2="100%" y2="0%"><stop offset="14.444444444444446%" stop-color="#392b69" stop-opacity="1"></stop><stop offset="85.55555555555554%" stop-color="#725fa3" stop-opacity="1"></stop></linearGradient></defs><defs><linearGradient id="grad1_3" x1="43.8%" y1="100%" x2="100%" y2="0%"><stop offset="14.444444444444446%" stop-color="#392b69" stop-opacity="1"></stop><stop offset="85.55555555555554%" stop-color="#000000" stop-opacity="1"></stop></linearGradient></defs><defs><linearGradient id="grad2_0" x1="0%" y1="100%" x2="56.3%" y2="0%"><stop offset="14.444444444444446%" stop-color="#ae98e1" stop-opacity="1"></stop><stop offset="85.55555555555554%" stop-color="#ae98e1" stop-opacity="1"></stop></linearGradient></defs><defs><linearGradient id="grad2_1" x1="0%" y1="100%" x2="56.3%" y2="0%"><stop offset="14.444444444444446%" stop-color="#725fa3" stop-opacity="1"></stop><stop offset="85.55555555555554%" stop-color="#ae98e1" stop-opacity="1"></stop></linearGradient></defs><defs><linearGradient id="grad2_2" x1="0%" y1="100%" x2="56.3%" y2="0%"><stop offset="14.444444444444446%" stop-color="#725fa3" stop-opacity="1"></stop><stop offset="85.55555555555554%" stop-color="#392b69" stop-opacity="1"></stop></linearGradient></defs><defs><linearGradient id="grad2_3" x1="0%" y1="100%" x2="56.3%" y2="0%"><stop offset="14.444444444444446%" stop-color="#000000" stop-opacity="1"></stop><stop offset="85.55555555555554%" stop-color="#392b69" stop-opacity="1"></stop></linearGradient></defs>

<g transform="translate(900, 600)"><path d="M-270 0C-260.9 -45.8 -251.7 -91.5 -230.4 -133C-209 -174.5 -175.4 -211.7 -135 -233.8C-94.6 -255.9 -47.3 -263 0 -270L0 0Z" fill="#1d144d"></path><path d="M-202.5 0C-195.6 -34.3 -188.8 -68.6 -172.8 -99.8C-156.8 -130.9 -131.6 -158.8 -101.3 -175.4C-70.9 -192 -35.5 -197.2 0 -202.5L0 0Z" fill="#554485"></path><path d="M-135 0C-130.4 -22.9 -125.9 -45.8 -115.2 -66.5C-104.5 -87.2 -87.7 -105.9 -67.5 -116.9C-47.3 -128 -23.6 -131.5 0 -135L0 0Z" fill="#907bc2"></path><path d="M-67.5 0C-65.2 -11.4 -62.9 -22.9 -57.6 -33.3C-52.3 -43.6 -43.9 -52.9 -33.8 -58.5C-23.6 -64 -11.8 -65.7 0 -67.5L0 0Z" fill="#ae98e1"></path></g>

<g transform="translate(0, 0)"><path d="M270 0C264.7 50.3 259.4 100.6 233.8 135C208.2 169.4 162.4 188 120 207.8C77.6 227.7 38.8 248.9 0 270L0 0Z" fill="#1d144d"></path><path d="M202.5 0C198.5 37.7 194.6 75.4 175.4 101.2C156.2 127.1 121.8 141 90 155.9C58.2 170.8 29.1 186.6 0 202.5L0 0Z" fill="#554485"></path><path d="M135 0C132.4 25.1 129.7 50.3 116.9 67.5C104.1 84.7 81.2 94 60 103.9C38.8 113.9 19.4 124.4 0 135L0 0Z" fill="#907bc2"></path><path d="M67.5 0C66.2 12.6 64.9 25.1 58.5 33.7C52.1 42.4 40.6 47 30 52C19.4 56.9 9.7 62.2 0 67.5L0 0Z" fill="#ae98e1"></path></g>

</svg><svg id="visual" viewBox="0 0 900 600" width="900" height="600" xmlns="http://www.w3.org/2000/svg" xmlns:xlink="http://www.w3.org/1999/xlink" version="1.1" y="600"><rect x="0" y="0" width="900" height="600" fill="#000000"></rect><defs><linearGradient id="grad1_0" x1="43.8%" y1="100%" x2="100%" y2="0%"><stop offset="14.444444444444446%" stop-color="#ae98e1" stop-opacity="1"></stop><stop offset="85.55555555555554%" stop-color="#ae98e1" stop-opacity="1"></stop></linearGradient></defs><defs><linearGradient id="grad1_1" x1="43.8%" y1="100%" x2="100%" y2="0%"><stop offset="14.444444444444446%" stop-color="#ae98e1" stop-opacity="1"></stop><stop offset="85.55555555555554%" stop-color="#725fa3" stop-opacity="1"></stop></linearGradient></defs><defs><linearGradient id="grad1_2" x1="43.8%" y1="100%" x2="100%" y2="0%"><stop offset="14.444444444444446%" stop-color="#392b69" stop-opacity="1"></stop><stop offset="85.55555555555554%" stop-color="#725fa3" stop-opacity="1"></stop></linearGradient></defs><defs><linearGradient id="grad1_3" x1="43.8%" y1="100%" x2="100%" y2="0%"><stop offset="14.444444444444446%" stop-color="#392b69" stop-opacity="1"></stop><stop offset="85.55555555555554%" stop-color="#000000" stop-opacity="1"></stop></linearGradient></defs><defs><linearGradient id="grad2_0" x1="0%" y1="100%" x2="56.3%" y2="0%"><stop offset="14.444444444444446%" stop-color="#ae98e1" stop-opacity="1"></stop><stop offset="85.55555555555554%" stop-color="#ae98e1" stop-opacity="1"></stop></linearGradient></defs><defs><linearGradient id="grad2_1" x1="0%" y1="100%" x2="56.3%" y2="0%"><stop offset="14.444444444444446%" stop-color="#725fa3" stop-opacity="1"></stop><stop offset="85.55555555555554%" stop-color="#ae98e1" stop-opacity="1"></stop></linearGradient></defs><defs><linearGradient id="grad2_2" x1="0%" y1="100%" x2="56.3%" y2="0%"><stop offset="14.444444444444446%" stop-color="#725fa3" stop-opacity="1"></stop><stop offset="85.55555555555554%" stop-color="#392b69" stop-opacity="1"></stop></linearGradient></defs><defs><linearGradient id="grad2_3" x1="0%" y1="100%" x2="56.3%" y2="0%"><stop offset="14.444444444444446%" stop-color="#000000" stop-opacity="1"></stop><stop offset="85.55555555555554%" stop-color="#392b69" stop-opacity="1"></stop></linearGradient></defs><g transform="translate(900, 0) scale(1 , -1)"><path d="M-270 0C-260.9 -45.8 -251.7 -91.5 -230.4 -133C-209 -174.5 -175.4 -211.7 -135 -233.8C-94.6 -255.9 -47.3 -263 0 -270L0 0Z" fill="#1d144d"></path><path d="M-202.5 0C-195.6 -34.3 -188.8 -68.6 -172.8 -99.8C-156.8 -130.9 -131.6 -158.8 -101.3 -175.4C-70.9 -192 -35.5 -197.2 0 -202.5L0 0Z" fill="#554485"></path><path d="M-135 0C-130.4 -22.9 -125.9 -45.8 -115.2 -66.5C-104.5 -87.2 -87.7 -105.9 -67.5 -116.9C-47.3 -128 -23.6 -131.5 0 -135L0 0Z" fill="#907bc2"></path><path d="M-67.5 0C-65.2 -11.4 -62.9 -22.9 -57.6 -33.3C-52.3 -43.6 -43.9 -52.9 -33.8 -58.5C-23.6 -64 -11.8 -65.7 0 -67.5L0 0Z" fill="#ae98e1"></path></g></svg></svg>